<?xml version="1.0" encoding="iso-8859-1"?>
<!-- Uploaded to: SVG Repo, www.svgrepo.com, Generator: SVG Repo Mixer Tools -->
<svg fill="#000000" height="800px" width="800px" version="1.1" id="Layer_1" xmlns="http://www.w3.org/2000/svg" xmlns:xlink="http://www.w3.org/1999/xlink" 
	 viewBox="0 0 512 512" xml:space="preserve">
<g>
	<g>
		<path d="M303.6,84c18.8-11.6,35.6-32,35.6-67.6c0-1.2-0.4-2-1.2-2.8c-0.8-0.8-2-1.2-3.2-1.2c-16.4,1.6-36.4,9.2-53.6,25.6
			c-6-16.4-13.2-26.4-22.4-36.8c-1.6-1.6-4.4-1.6-6,0c-10.4,12-18.4,22.8-24,36.4c-16.4-15.2-33.2-23.2-51.6-25.2
			c-1.2,0-2.4,0.4-3.2,1.2c-0.8,0.8-1.2,2-1.2,2.8c0,34,14.8,54,31.6,66C85.2,89.2,0,166,0,269.2C0,383.6,109.6,512,256,512
			s256-127.2,256-242C512,166,424.8,88,303.6,84z M331.2,21.2c-1.2,28-14.4,48.4-39.2,60.4c-13.6,6.8-27.2,9.2-34.4,10
			C272.4,46,305.2,25.2,331.2,21.2z M256,10c7.6,9.2,14,19.2,18.8,34.4c-10.8,12-20,27.6-26,47.2c-4-0.4-12-2-20.8-5.2
			C229.6,45.6,240.4,28,256,10z M180.8,21.2C196.4,23.6,211.6,32,226,46c-3.2,10.4-5.2,22.4-5.6,37.2
			C202,74.4,182.4,56.4,180.8,21.2z M256,504C114,504,8,380,8,269.2C8,167.2,96,92,217.2,90.4c17.6,8.8,34,10,34.4,10c0,0,0,0,0.4,0
			c0.4,0,0.4,0,0.8,0c3.6,0,21.2-1.6,40-10c0.4,0,0.8,0,1.2,0c122,1.6,210.4,76.8,210.4,179.2C504,380,398,504,256,504z"/>
	</g>
</g>
<g>
	<g>
		<path d="M447.6,176.8c-0.8-1.6-3.2-2-5.2-0.4c-1.6,1.6-1.6,4-0.4,5.6c22.4,24.4,33.6,53.6,33.6,87.2c0,2.4,1.6,4,4,4
			c2.4,0,4-1.6,4-4C483.6,233.6,471.6,202.4,447.6,176.8z"/>
	</g>
</g>
<g>
	<g>
		<path d="M420.4,152.8c-10.8-7.6-23.2-14.4-36.8-20.4c-2-0.8-4.4,0-5.2,2s0,4.4,2,5.2c12.8,5.6,24.8,12,35.6,19.6
			c0.8,0.4,1.6,0.8,2.4,0.8c1.2,0,2.4-0.8,3.2-1.6C422.8,156.4,422.4,154,420.4,152.8z"/>
	</g>
</g>
<g>
	<g>
		<path d="M184.4,463.6c-31.2-11.2-59.6-29.2-84.4-53.6c-19.2-19.2-34.8-40.4-46-63.6c-0.8-2-3.2-2.8-5.2-2s-2.8,3.2-2,5.2
			c11.6,24,27.6,46,47.6,65.6c25.6,25.2,54.8,44,87.2,55.6c0.4,0,0.8,0.4,1.2,0.4c1.6,0,3.2-1.2,3.6-2.8
			C187.6,466.4,186.8,464,184.4,463.6z"/>
	</g>
</g>
</svg>