<?xml version="1.0" encoding="iso-8859-1"?>
<!-- Uploaded to: SVG Repo, www.svgrepo.com, Generator: SVG Repo Mixer Tools -->
<!DOCTYPE svg PUBLIC "-//W3C//DTD SVG 1.1//EN" "http://www.w3.org/Graphics/SVG/1.1/DTD/svg11.dtd">
<svg height="24px" width="24px" version="1.1" id="Capa_1" xmlns="http://www.w3.org/2000/svg" xmlns:xlink="http://www.w3.org/1999/xlink" 
	 viewBox="0 0 35.279 35.279" xml:space="preserve">
<g>
	<path style="fill:#1D1D1B;" d="M20.833,5.94c-0.001-0.001-0.001-0.002-0.002-0.003c-1.49-1.111-3.551-1.347-5.203-0.459
		c-0.188-0.918-0.175-1.784-0.161-2.743c0,0,0-0.001,0-0.002c0-0.016,0-0.032,0.001-0.048c0-0.021-0.014-0.031-0.019-0.049
		c-0.006-0.022,0.002-0.042-0.012-0.066c-0.34-0.573-1.238-0.807-1.788-0.411c-0.071,0.051-0.07,0.156-0.006,0.201
		c-0.041,0.021-0.075,0.052-0.083,0.107c-0.166,1.105,0.211,2.346,0.703,3.361c-1.265-0.062-2.441,0.696-2.973,1.889
		c-0.026,0.058-0.035,0.115-0.03,0.166C3.154,7.982-1.057,16.864,0.228,24.158c1.48,8.406,10.705,10.005,17.929,8.804
		c6.992-1.162,16.45-5.281,17.084-13.468C35.886,11.178,28.259,6.24,20.833,5.94z M14.74,6.191c0.166,0.002,0.206-0.255,0.04-0.293
		c-0.031-0.007-0.061-0.006-0.092-0.012c-0.192-0.537-0.37-1.076-0.49-1.635c-0.126-0.59-0.143-1.198-0.281-1.782
		c-0.008-0.033-0.031-0.056-0.055-0.077c0.459,0.016,0.786,0.127,1.164,0.416c-0.228,0.948-0.055,2.011,0.29,2.928
		C15.307,5.801,15.335,5.86,15.38,5.91c0.024,0.06,0.042,0.126,0.067,0.184c0.073,0.166,0.338,0.047,0.289-0.122
		c-0.003-0.012-0.004-0.023-0.008-0.035c1.376-0.62,2.82-0.644,4.113,0.021C19.127,6.06,18.447,6.3,17.819,6.694
		c-0.147,0.092-0.052,0.369,0.124,0.296c0.038-0.016,0.075-0.026,0.113-0.041c-0.025,0.089-0.003,0.193,0.083,0.24
		c0.483,0.264,0.95,0.343,1.332,0.791c0.216,0.253,0.356,0.545,0.434,0.854c-0.674-0.612-1.547-0.953-2.493-0.925
		C17.347,7.91,17.304,7.94,17.276,7.98c-0.022,0.01-0.045,0.015-0.062,0.035c-0.343,0.423-0.469,1.052-0.52,1.64
		c-0.26-0.355-0.418-0.777-0.48-1.219c0.13-0.191-0.044-0.474-0.288-0.34c-0.748,0.408-1.462,0.886-2.179,1.353
		c0.145-0.688,0.532-1.272,1.053-1.772h0c0.277-0.045,0.215-0.522-0.067-0.494c-0.893,0.091-1.785,0.21-2.676,0.328
		C12.661,6.661,13.674,6.178,14.74,6.191z M34.365,20.802c-1.32,5.939-7.65,9.227-13.002,10.775
		c-6.64,1.92-16.155,2.099-19.735-4.962C-2.206,19.051,3.363,9.08,11.563,8.3c0.123-0.012,0.184-0.102,0.198-0.195
		c0.802-0.108,1.606-0.214,2.406-0.334c-0.644,0.524-0.987,1.36-1.007,2.199c-0.004,0.191,0.223,0.325,0.386,0.222
		c0.796-0.502,1.617-0.986,2.389-1.528c0.055,0.677,0.341,1.259,0.799,1.785c0.153,0.176,0.427,0.026,0.435-0.18
		c0.016-0.399,0.064-0.792,0.16-1.18c0.067-0.269,0.163-0.524,0.21-0.794c0.998,0.104,1.89,0.608,2.464,1.441
		c0.157,0.228,0.469,0.129,0.497-0.135c0.078-0.71-0.148-1.392-0.605-1.938c-0.332-0.397-0.882-0.823-1.433-0.861
		c0.664-0.225,1.323-0.333,2.048-0.347c0.018,0.004,0.025,0.02,0.045,0.021C27.962,6.829,36.272,12.225,34.365,20.802z"/>
</g>
</svg>